{
    "asset" : {
        "generator" : "Khronos glTF Blender I/O v1.6.16",
        "version" : "2.0"
    },
    "scene" : 0,
    "scenes" : [
        {
            "name" : "Scene",
            "nodes" : [
                0,
                1,
                2,
                3,
                4,
                5,
                6,
                7,
                8,
                9,
                10,
                11
            ]
        }
    ],
    "nodes" : [
        {
            "mesh" : 0,
            "name" : "Cube",
            "scale" : [
                12,
                2,
                4
            ]
        },
        {
            "name" : "Light",
            "rotation" : [
                0.16907575726509094,
                0.7558803558349609,
                -0.27217137813568115,
                0.570947527885437
            ],
            "translation" : [
                4.076245307922363,
                5.903861999511719,
                -1.0054539442062378
            ]
        },
        {
            "name" : "Camera",
            "rotation" : [
                0.483536034822464,
                0.33687159419059753,
                -0.20870360732078552,
                0.7804827094078064
            ],
            "translation" : [
                7.358891487121582,
                4.958309173583984,
                6.925790786743164
            ]
        },
        {
            "mesh" : 1,
            "name" : "Cube.001",
            "rotation" : [
                0.6545499563217163,
                -0.269634872674942,
                0.2690211236476898,
                0.6530612707138062
            ],
            "scale" : [
                1.679585337638855,
                0.8218040466308594,
                1.9582492113113403
            ]
        },
        {
            "mesh" : 2,
            "name" : "Cube.002",
            "rotation" : [
                0.6545499563217163,
                -0.269634872674942,
                0.2690211236476898,
                0.6530612707138062
            ],
            "scale" : [
                1.679585337638855,
                0.8218040466308594,
                1.9582492113113403
            ],
            "translation" : [
                7.9679083824157715,
                0,
                0
            ]
        },
        {
            "mesh" : 3,
            "name" : "Cube.003",
            "rotation" : [
                0.6545499563217163,
                -0.269634872674942,
                0.2690211236476898,
                0.6530612707138062
            ],
            "scale" : [
                1.6789300441741943,
                0.8214787244796753,
                0.11225729435682297
            ],
            "translation" : [
                7.9679083824157715,
                0,
                0
            ]
        },
        {
            "mesh" : 4,
            "name" : "Cube.004",
            "rotation" : [
                0.6545499563217163,
                -0.269634872674942,
                0.2690211236476898,
                0.6530612707138062
            ],
            "scale" : [
                1.679585337638855,
                0.8218040466308594,
                1.9582492113113403
            ],
            "translation" : [
                -8.03209114074707,
                0,
                0
            ]
        },
        {
            "mesh" : 5,
            "name" : "Cylinder",
            "scale" : [
                1,
                -2,
                1
            ],
            "translation" : [
                0,
                0.08459321409463882,
                0
            ]
        },
        {
            "mesh" : 6,
            "name" : "Cylinder.001",
            "scale" : [
                1,
                -2,
                1
            ],
            "translation" : [
                0,
                0.08459321409463882,
                0
            ]
        },
        {
            "mesh" : 7,
            "name" : "Cylinder.002",
            "scale" : [
                1,
                -2,
                1
            ],
            "translation" : [
                -8.000000953674316,
                0.08459321409463882,
                0
            ]
        },
        {
            "mesh" : 8,
            "name" : "Cylinder.003",
            "scale" : [
                1,
                -2,
                1
            ],
            "translation" : [
                7.999999046325684,
                0.08459321409463882,
                0
            ]
        },
        {
            "mesh" : 9,
            "name" : "Text",
            "scale" : [
                2.9364583492279053,
                2.9364583492279053,
                2.9364583492279053
            ],
            "translation" : [
                -2.8992886543273926,
                2.093031167984009,
                1.015672206878662
            ]
        }
    ],
    "materials" : [
        {
            "doubleSided" : true,
            "name" : "Material",
            "pbrMetallicRoughness" : {
                "baseColorFactor" : [
                    0.08353130519390106,
                    0.08353130519390106,
                    0.08353130519390106,
                    1
                ],
                "metallicFactor" : 0,
                "roughnessFactor" : 0.4000000059604645
            }
        },
        {
            "doubleSided" : true,
            "name" : "Material.001",
            "pbrMetallicRoughness" : {
                "baseColorFactor" : [
                    0.25294286012649536,
                    0.25294286012649536,
                    0.25294286012649536,
                    1
                ],
                "metallicFactor" : 0,
                "roughnessFactor" : 0.5
            }
        },
        {
            "doubleSided" : true,
            "name" : "Material.003",
            "pbrMetallicRoughness" : {
                "baseColorFactor" : [
                    0,
                    0,
                    0,
                    1
                ],
                "metallicFactor" : 0,
                "roughnessFactor" : 0.5
            }
        }
    ],
    "meshes" : [
        {
            "name" : "Cube",
            "primitives" : [
                {
                    "attributes" : {
                        "POSITION" : 0,
                        "NORMAL" : 1,
                        "TEXCOORD_0" : 2
                    },
                    "indices" : 3,
                    "material" : 0
                }
            ]
        },
        {
            "name" : "Cube.009",
            "primitives" : [
                {
                    "attributes" : {
                        "POSITION" : 4,
                        "NORMAL" : 5,
                        "TEXCOORD_0" : 6
                    },
                    "indices" : 7,
                    "material" : 1
                }
            ]
        },
        {
            "name" : "Cube.010",
            "primitives" : [
                {
                    "attributes" : {
                        "POSITION" : 8,
                        "NORMAL" : 9,
                        "TEXCOORD_0" : 10
                    },
                    "indices" : 7,
                    "material" : 1
                }
            ]
        },
        {
            "name" : "Cube.011",
            "primitives" : [
                {
                    "attributes" : {
                        "POSITION" : 11,
                        "NORMAL" : 12,
                        "TEXCOORD_0" : 13
                    },
                    "indices" : 7
                }
            ]
        },
        {
            "name" : "Cube.012",
            "primitives" : [
                {
                    "attributes" : {
                        "POSITION" : 14,
                        "NORMAL" : 15,
                        "TEXCOORD_0" : 16
                    },
                    "indices" : 7,
                    "material" : 1
                }
            ]
        },
        {
            "name" : "Cylinder",
            "primitives" : [
                {
                    "attributes" : {
                        "POSITION" : 17,
                        "NORMAL" : 18,
                        "TEXCOORD_0" : 19
                    },
                    "indices" : 20,
                    "material" : 1
                }
            ]
        },
        {
            "name" : "Cylinder.001",
            "primitives" : [
                {
                    "attributes" : {
                        "POSITION" : 21,
                        "NORMAL" : 22,
                        "TEXCOORD_0" : 23
                    },
                    "indices" : 20
                }
            ]
        },
        {
            "name" : "Cylinder.002",
            "primitives" : [
                {
                    "attributes" : {
                        "POSITION" : 24,
                        "NORMAL" : 25,
                        "TEXCOORD_0" : 26
                    },
                    "indices" : 20,
                    "material" : 1
                }
            ]
        },
        {
            "name" : "Cylinder.003",
            "primitives" : [
                {
                    "attributes" : {
                        "POSITION" : 27,
                        "NORMAL" : 28,
                        "TEXCOORD_0" : 29
                    },
                    "indices" : 20,
                    "material" : 1
                }
            ]
        },
        {
            "name" : "Text",
            "primitives" : [
                {
                    "attributes" : {
                        "POSITION" : 30,
                        "NORMAL" : 31,
                        "TEXCOORD_0" : 32
                    },
                    "indices" : 33,
                    "material" : 2
                }
            ]
        }
    ],
    "accessors" : [
        {
            "bufferView" : 0,
            "componentType" : 5126,
            "count" : 1168,
            "max" : [
                1,
                1,
                1
            ],
            "min" : [
                -1,
                -1,
                -1
            ],
            "type" : "VEC3"
        },
        {
            "bufferView" : 1,
            "componentType" : 5126,
            "count" : 1168,
            "type" : "VEC3"
        },
        {
            "bufferView" : 2,
            "componentType" : 5126,
            "count" : 1168,
            "type" : "VEC2"
        },
        {
            "bufferView" : 3,
            "componentType" : 5123,
            "count" : 2256,
            "type" : "SCALAR"
        },
        {
            "bufferView" : 4,
            "componentType" : 5126,
            "count" : 574,
            "max" : [
                1.8804420232772827,
                3.8425633907318115,
                1.0000042915344238
            ],
            "min" : [
                -1.8804419040679932,
                -3.8425638675689697,
                -1.0000042915344238
            ],
            "type" : "VEC3"
        },
        {
            "bufferView" : 5,
            "componentType" : 5126,
            "count" : 574,
            "type" : "VEC3"
        },
        {
            "bufferView" : 6,
            "componentType" : 5126,
            "count" : 574,
            "type" : "VEC2"
        },
        {
            "bufferView" : 7,
            "componentType" : 5123,
            "count" : 864,
            "type" : "SCALAR"
        },
        {
            "bufferView" : 8,
            "componentType" : 5126,
            "count" : 574,
            "max" : [
                1.8804420232772827,
                3.8425633907318115,
                1.0000042915344238
            ],
            "min" : [
                -1.8804419040679932,
                -3.8425638675689697,
                -1.0000042915344238
            ],
            "type" : "VEC3"
        },
        {
            "bufferView" : 9,
            "componentType" : 5126,
            "count" : 574,
            "type" : "VEC3"
        },
        {
            "bufferView" : 10,
            "componentType" : 5126,
            "count" : 574,
            "type" : "VEC2"
        },
        {
            "bufferView" : 11,
            "componentType" : 5126,
            "count" : 574,
            "max" : [
                1.8804420232772827,
                3.8425633907318115,
                1.0000042915344238
            ],
            "min" : [
                -1.8804419040679932,
                -3.8425638675689697,
                -1.0000042915344238
            ],
            "type" : "VEC3"
        },
        {
            "bufferView" : 12,
            "componentType" : 5126,
            "count" : 574,
            "type" : "VEC3"
        },
        {
            "bufferView" : 13,
            "componentType" : 5126,
            "count" : 574,
            "type" : "VEC2"
        },
        {
            "bufferView" : 14,
            "componentType" : 5126,
            "count" : 574,
            "max" : [
                1.8804420232772827,
                3.8425633907318115,
                1.0000042915344238
            ],
            "min" : [
                -1.8804419040679932,
                -3.8425638675689697,
                -1.0000042915344238
            ],
            "type" : "VEC3"
        },
        {
            "bufferView" : 15,
            "componentType" : 5126,
            "count" : 574,
            "type" : "VEC3"
        },
        {
            "bufferView" : 16,
            "componentType" : 5126,
            "count" : 574,
            "type" : "VEC2"
        },
        {
            "bufferView" : 17,
            "componentType" : 5126,
            "count" : 192,
            "max" : [
                1,
                1,
                1
            ],
            "min" : [
                -1,
                -1,
                -1
            ],
            "type" : "VEC3"
        },
        {
            "bufferView" : 18,
            "componentType" : 5126,
            "count" : 192,
            "type" : "VEC3"
        },
        {
            "bufferView" : 19,
            "componentType" : 5126,
            "count" : 192,
            "type" : "VEC2"
        },
        {
            "bufferView" : 20,
            "componentType" : 5123,
            "count" : 372,
            "type" : "SCALAR"
        },
        {
            "bufferView" : 21,
            "componentType" : 5126,
            "count" : 192,
            "max" : [
                1,
                1,
                1
            ],
            "min" : [
                -1,
                -1,
                -1
            ],
            "type" : "VEC3"
        },
        {
            "bufferView" : 22,
            "componentType" : 5126,
            "count" : 192,
            "type" : "VEC3"
        },
        {
            "bufferView" : 23,
            "componentType" : 5126,
            "count" : 192,
            "type" : "VEC2"
        },
        {
            "bufferView" : 24,
            "componentType" : 5126,
            "count" : 192,
            "max" : [
                1,
                1,
                1
            ],
            "min" : [
                -1,
                -1,
                -1
            ],
            "type" : "VEC3"
        },
        {
            "bufferView" : 25,
            "componentType" : 5126,
            "count" : 192,
            "type" : "VEC3"
        },
        {
            "bufferView" : 26,
            "componentType" : 5126,
            "count" : 192,
            "type" : "VEC2"
        },
        {
            "bufferView" : 27,
            "componentType" : 5126,
            "count" : 192,
            "max" : [
                1,
                1,
                1
            ],
            "min" : [
                -1,
                -1,
                -1
            ],
            "type" : "VEC3"
        },
        {
            "bufferView" : 28,
            "componentType" : 5126,
            "count" : 192,
            "type" : "VEC3"
        },
        {
            "bufferView" : 29,
            "componentType" : 5126,
            "count" : 192,
            "type" : "VEC2"
        },
        {
            "bufferView" : 30,
            "componentType" : 5126,
            "count" : 1524,
            "max" : [
                1.8980000019073486,
                0.030000457540154457,
                0.009000000543892384
            ],
            "min" : [
                0.05000000074505806,
                -0.030000457540154457,
                -0.6910000443458557
            ],
            "type" : "VEC3"
        },
        {
            "bufferView" : 31,
            "componentType" : 5126,
            "count" : 1524,
            "type" : "VEC3"
        },
        {
            "bufferView" : 32,
            "componentType" : 5126,
            "count" : 1524,
            "type" : "VEC2"
        },
        {
            "bufferView" : 33,
            "componentType" : 5123,
            "count" : 2808,
            "type" : "SCALAR"
        }
    ],
    "bufferViews" : [
        {
            "buffer" : 0,
            "byteLength" : 14016,
            "byteOffset" : 0
        },
        {
            "buffer" : 0,
            "byteLength" : 14016,
            "byteOffset" : 14016
        },
        {
            "buffer" : 0,
            "byteLength" : 9344,
            "byteOffset" : 28032
        },
        {
            "buffer" : 0,
            "byteLength" : 4512,
            "byteOffset" : 37376
        },
        {
            "buffer" : 0,
            "byteLength" : 6888,
            "byteOffset" : 41888
        },
        {
            "buffer" : 0,
            "byteLength" : 6888,
            "byteOffset" : 48776
        },
        {
            "buffer" : 0,
            "byteLength" : 4592,
            "byteOffset" : 55664
        },
        {
            "buffer" : 0,
            "byteLength" : 1728,
            "byteOffset" : 60256
        },
        {
            "buffer" : 0,
            "byteLength" : 6888,
            "byteOffset" : 61984
        },
        {
            "buffer" : 0,
            "byteLength" : 6888,
            "byteOffset" : 68872
        },
        {
            "buffer" : 0,
            "byteLength" : 4592,
            "byteOffset" : 75760
        },
        {
            "buffer" : 0,
            "byteLength" : 6888,
            "byteOffset" : 80352
        },
        {
            "buffer" : 0,
            "byteLength" : 6888,
            "byteOffset" : 87240
        },
        {
            "buffer" : 0,
            "byteLength" : 4592,
            "byteOffset" : 94128
        },
        {
            "buffer" : 0,
            "byteLength" : 6888,
            "byteOffset" : 98720
        },
        {
            "buffer" : 0,
            "byteLength" : 6888,
            "byteOffset" : 105608
        },
        {
            "buffer" : 0,
            "byteLength" : 4592,
            "byteOffset" : 112496
        },
        {
            "buffer" : 0,
            "byteLength" : 2304,
            "byteOffset" : 117088
        },
        {
            "buffer" : 0,
            "byteLength" : 2304,
            "byteOffset" : 119392
        },
        {
            "buffer" : 0,
            "byteLength" : 1536,
            "byteOffset" : 121696
        },
        {
            "buffer" : 0,
            "byteLength" : 744,
            "byteOffset" : 123232
        },
        {
            "buffer" : 0,
            "byteLength" : 2304,
            "byteOffset" : 123976
        },
        {
            "buffer" : 0,
            "byteLength" : 2304,
            "byteOffset" : 126280
        },
        {
            "buffer" : 0,
            "byteLength" : 1536,
            "byteOffset" : 128584
        },
        {
            "buffer" : 0,
            "byteLength" : 2304,
            "byteOffset" : 130120
        },
        {
            "buffer" : 0,
            "byteLength" : 2304,
            "byteOffset" : 132424
        },
        {
            "buffer" : 0,
            "byteLength" : 1536,
            "byteOffset" : 134728
        },
        {
            "buffer" : 0,
            "byteLength" : 2304,
            "byteOffset" : 136264
        },
        {
            "buffer" : 0,
            "byteLength" : 2304,
            "byteOffset" : 138568
        },
        {
            "buffer" : 0,
            "byteLength" : 1536,
            "byteOffset" : 140872
        },
        {
            "buffer" : 0,
            "byteLength" : 18288,
            "byteOffset" : 142408
        },
        {
            "buffer" : 0,
            "byteLength" : 18288,
            "byteOffset" : 160696
        },
        {
            "buffer" : 0,
            "byteLength" : 12192,
            "byteOffset" : 178984
        },
        {
            "buffer" : 0,
            "byteLength" : 5616,
            "byteOffset" : 191176
        }
    ],
    "buffers" : [
        {
            "byteLength" : 196792,
            "uri" : "data:application/octet-stream;base64,"
        }
    ]
}
