{
    "asset" : {
        "generator" : "Khronos glTF Blender I/O v1.6.16",
        "version" : "2.0"
    },
    "scene" : 0,
    "scenes" : [
        {
            "name" : "Scene",
            "nodes" : [
                0,
                1,
                2,
                3,
                4,
                5,
                6,
                7,
                8,
                9
            ]
        }
    ],
    "nodes" : [
        {
            "mesh" : 0,
            "name" : "Cube",
            "scale" : [
                4.963286399841309,
                1.3118611574172974,
                0.09788882732391357
            ]
        },
        {
            "name" : "Light",
            "rotation" : [
                0.16907575726509094,
                0.7558803558349609,
                -0.27217137813568115,
                0.570947527885437
            ],
            "translation" : [
                4.076245307922363,
                5.903861999511719,
                -1.0054539442062378
            ]
        },
        {
            "name" : "Camera",
            "rotation" : [
                0.483536034822464,
                0.33687159419059753,
                -0.20870360732078552,
                0.7804827094078064
            ],
            "translation" : [
                7.358891487121582,
                4.958309173583984,
                6.925790786743164
            ]
        },
        {
            "mesh" : 1,
            "name" : "Cube.001",
            "scale" : [
                0.28732913732528687,
                0.3828475773334503,
                0.10067129135131836
            ],
            "translation" : [
                -4.310652256011963,
                -0.15920020639896393,
                0.014833682216703892
            ]
        },
        {
            "mesh" : 2,
            "name" : "Cube.002",
            "scale" : [
                0.28732913732528687,
                0.3828475773334503,
                0.10067129135131836
            ],
            "translation" : [
                -3.4789254665374756,
                -0.15920020639896393,
                0.014833682216703892
            ]
        },
        {
            "mesh" : 3,
            "name" : "Cube.003",
            "scale" : [
                0.28732913732528687,
                0.3828475773334503,
                0.10067129135131836
            ],
            "translation" : [
                -2.632434129714966,
                -0.15920020639896393,
                0.014833682216703892
            ]
        },
        {
            "mesh" : 4,
            "name" : "Cube.006",
            "scale" : [
                0.28732913732528687,
                0.3828475773334503,
                0.10067129135131836
            ],
            "translation" : [
                2.2518210411071777,
                -0.15920020639896393,
                0.014833682216703892
            ]
        },
        {
            "mesh" : 5,
            "name" : "Cube.005",
            "scale" : [
                0.28732913732528687,
                0.3828475773334503,
                0.10067129135131836
            ],
            "translation" : [
                3.083547830581665,
                -0.15920020639896393,
                0.014833682216703892
            ]
        },
        {
            "mesh" : 6,
            "name" : "Cube.004",
            "scale" : [
                0.28732913732528687,
                0.3828475773334503,
                0.10067129135131836
            ],
            "translation" : [
                3.930039167404175,
                -0.15920020639896393,
                0.014833682216703892
            ]
        },
        {
            "mesh" : 7,
            "name" : "Text",
            "rotation" : [
                0.7071067690849304,
                0,
                0,
                0.7071068286895752
            ],
            "translation" : [
                -1.0069078207015991,
                -0.25512874126434326,
                0.1063036322593689
            ]
        }
    ],
    "materials" : [
        {
            "doubleSided" : true,
            "name" : "Material",
            "pbrMetallicRoughness" : {
                "baseColorFactor" : [
                    0.00132218305952847,
                    0.06071936711668968,
                    0.010549420490860939,
                    1
                ],
                "metallicFactor" : 0,
                "roughnessFactor" : 0.4000000059604645
            }
        },
        {
            "doubleSided" : true,
            "name" : "Material.007",
            "pbrMetallicRoughness" : {
                "baseColorFactor" : [
                    0.777041494846344,
                    0.8275558352470398,
                    0.12118939310312271,
                    1
                ],
                "metallicFactor" : 0,
                "roughnessFactor" : 0.5
            }
        },
        {
            "doubleSided" : true,
            "name" : "Material.001",
            "pbrMetallicRoughness" : {
                "baseColorFactor" : [
                    0,
                    0,
                    0,
                    1
                ],
                "metallicFactor" : 0,
                "roughnessFactor" : 0.5
            }
        },
        {
            "doubleSided" : true,
            "name" : "Material.002",
            "pbrMetallicRoughness" : {
                "baseColorFactor" : [
                    0,
                    0,
                    0,
                    1
                ],
                "metallicFactor" : 0,
                "roughnessFactor" : 0.5
            }
        },
        {
            "doubleSided" : true,
            "name" : "Material.003",
            "pbrMetallicRoughness" : {
                "baseColorFactor" : [
                    0,
                    0,
                    0,
                    1
                ],
                "metallicFactor" : 0,
                "roughnessFactor" : 0.5
            }
        },
        {
            "doubleSided" : true,
            "name" : "Material.006",
            "pbrMetallicRoughness" : {
                "baseColorFactor" : [
                    0,
                    0,
                    0,
                    1
                ],
                "metallicFactor" : 0,
                "roughnessFactor" : 0.5
            }
        },
        {
            "doubleSided" : true,
            "name" : "Material.005",
            "pbrMetallicRoughness" : {
                "baseColorFactor" : [
                    0,
                    0,
                    0,
                    1
                ],
                "metallicFactor" : 0,
                "roughnessFactor" : 0.5
            }
        },
        {
            "doubleSided" : true,
            "name" : "Material.004",
            "pbrMetallicRoughness" : {
                "baseColorFactor" : [
                    0,
                    0,
                    0,
                    1
                ],
                "metallicFactor" : 0,
                "roughnessFactor" : 0.5
            }
        },
        {
            "doubleSided" : true,
            "name" : "Material.008",
            "pbrMetallicRoughness" : {
                "baseColorFactor" : [
                    0,
                    0,
                    0,
                    1
                ],
                "metallicFactor" : 0,
                "roughnessFactor" : 0.5
            }
        }
    ],
    "meshes" : [
        {
            "name" : "Cube",
            "primitives" : [
                {
                    "attributes" : {
                        "POSITION" : 0,
                        "NORMAL" : 1,
                        "TEXCOORD_0" : 2
                    },
                    "indices" : 3,
                    "material" : 0
                },
                {
                    "attributes" : {
                        "POSITION" : 4,
                        "NORMAL" : 5,
                        "TEXCOORD_0" : 6
                    },
                    "indices" : 7,
                    "material" : 1
                }
            ]
        },
        {
            "name" : "Cube.001",
            "primitives" : [
                {
                    "attributes" : {
                        "POSITION" : 8,
                        "NORMAL" : 9,
                        "TEXCOORD_0" : 10
                    },
                    "indices" : 11,
                    "material" : 2
                }
            ]
        },
        {
            "name" : "Cube.002",
            "primitives" : [
                {
                    "attributes" : {
                        "POSITION" : 12,
                        "NORMAL" : 13,
                        "TEXCOORD_0" : 14
                    },
                    "indices" : 11,
                    "material" : 3
                }
            ]
        },
        {
            "name" : "Cube.003",
            "primitives" : [
                {
                    "attributes" : {
                        "POSITION" : 15,
                        "NORMAL" : 16,
                        "TEXCOORD_0" : 17
                    },
                    "indices" : 11,
                    "material" : 4
                }
            ]
        },
        {
            "name" : "Cube.006",
            "primitives" : [
                {
                    "attributes" : {
                        "POSITION" : 18,
                        "NORMAL" : 19,
                        "TEXCOORD_0" : 20
                    },
                    "indices" : 11,
                    "material" : 5
                }
            ]
        },
        {
            "name" : "Cube.005",
            "primitives" : [
                {
                    "attributes" : {
                        "POSITION" : 21,
                        "NORMAL" : 22,
                        "TEXCOORD_0" : 23
                    },
                    "indices" : 11,
                    "material" : 6
                }
            ]
        },
        {
            "name" : "Cube.004",
            "primitives" : [
                {
                    "attributes" : {
                        "POSITION" : 24,
                        "NORMAL" : 25,
                        "TEXCOORD_0" : 26
                    },
                    "indices" : 11,
                    "material" : 7
                }
            ]
        },
        {
            "name" : "Text",
            "primitives" : [
                {
                    "attributes" : {
                        "POSITION" : 27,
                        "NORMAL" : 28,
                        "TEXCOORD_0" : 29
                    },
                    "indices" : 30,
                    "material" : 8
                }
            ]
        }
    ],
    "accessors" : [
        {
            "bufferView" : 0,
            "componentType" : 5126,
            "count" : 685,
            "max" : [
                1,
                1,
                1
            ],
            "min" : [
                -1,
                -0.8041236996650696,
                -1
            ],
            "type" : "VEC3"
        },
        {
            "bufferView" : 1,
            "componentType" : 5126,
            "count" : 685,
            "type" : "VEC3"
        },
        {
            "bufferView" : 2,
            "componentType" : 5126,
            "count" : 685,
            "type" : "VEC2"
        },
        {
            "bufferView" : 3,
            "componentType" : 5123,
            "count" : 1911,
            "type" : "SCALAR"
        },
        {
            "bufferView" : 4,
            "componentType" : 5126,
            "count" : 747,
            "max" : [
                1,
                -0.7971752882003784,
                1
            ],
            "min" : [
                -1,
                -1,
                -1
            ],
            "type" : "VEC3"
        },
        {
            "bufferView" : 5,
            "componentType" : 5126,
            "count" : 747,
            "type" : "VEC3"
        },
        {
            "bufferView" : 6,
            "componentType" : 5126,
            "count" : 747,
            "type" : "VEC2"
        },
        {
            "bufferView" : 7,
            "componentType" : 5123,
            "count" : 1929,
            "type" : "SCALAR"
        },
        {
            "bufferView" : 8,
            "componentType" : 5126,
            "count" : 24,
            "max" : [
                1,
                1,
                1
            ],
            "min" : [
                -1,
                -1,
                -1
            ],
            "type" : "VEC3"
        },
        {
            "bufferView" : 9,
            "componentType" : 5126,
            "count" : 24,
            "type" : "VEC3"
        },
        {
            "bufferView" : 10,
            "componentType" : 5126,
            "count" : 24,
            "type" : "VEC2"
        },
        {
            "bufferView" : 11,
            "componentType" : 5123,
            "count" : 36,
            "type" : "SCALAR"
        },
        {
            "bufferView" : 12,
            "componentType" : 5126,
            "count" : 24,
            "max" : [
                1,
                1,
                1
            ],
            "min" : [
                -1,
                -1,
                -1
            ],
            "type" : "VEC3"
        },
        {
            "bufferView" : 13,
            "componentType" : 5126,
            "count" : 24,
            "type" : "VEC3"
        },
        {
            "bufferView" : 14,
            "componentType" : 5126,
            "count" : 24,
            "type" : "VEC2"
        },
        {
            "bufferView" : 15,
            "componentType" : 5126,
            "count" : 24,
            "max" : [
                1,
                1,
                1
            ],
            "min" : [
                -1,
                -1,
                -1
            ],
            "type" : "VEC3"
        },
        {
            "bufferView" : 16,
            "componentType" : 5126,
            "count" : 24,
            "type" : "VEC3"
        },
        {
            "bufferView" : 17,
            "componentType" : 5126,
            "count" : 24,
            "type" : "VEC2"
        },
        {
            "bufferView" : 18,
            "componentType" : 5126,
            "count" : 24,
            "max" : [
                1,
                1,
                1
            ],
            "min" : [
                -1,
                -1,
                -1
            ],
            "type" : "VEC3"
        },
        {
            "bufferView" : 19,
            "componentType" : 5126,
            "count" : 24,
            "type" : "VEC3"
        },
        {
            "bufferView" : 20,
            "componentType" : 5126,
            "count" : 24,
            "type" : "VEC2"
        },
        {
            "bufferView" : 21,
            "componentType" : 5126,
            "count" : 24,
            "max" : [
                1,
                1,
                1
            ],
            "min" : [
                -1,
                -1,
                -1
            ],
            "type" : "VEC3"
        },
        {
            "bufferView" : 22,
            "componentType" : 5126,
            "count" : 24,
            "type" : "VEC3"
        },
        {
            "bufferView" : 23,
            "componentType" : 5126,
            "count" : 24,
            "type" : "VEC2"
        },
        {
            "bufferView" : 24,
            "componentType" : 5126,
            "count" : 24,
            "max" : [
                1,
                1,
                1
            ],
            "min" : [
                -1,
                -1,
                -1
            ],
            "type" : "VEC3"
        },
        {
            "bufferView" : 25,
            "componentType" : 5126,
            "count" : 24,
            "type" : "VEC3"
        },
        {
            "bufferView" : 26,
            "componentType" : 5126,
            "count" : 24,
            "type" : "VEC2"
        },
        {
            "bufferView" : 27,
            "componentType" : 5126,
            "count" : 796,
            "max" : [
                1.9800002574920654,
                0.020000003278255463,
                0
            ],
            "min" : [
                0.07700000703334808,
                -0.020000003278255463,
                -0.6860000491142273
            ],
            "type" : "VEC3"
        },
        {
            "bufferView" : 28,
            "componentType" : 5126,
            "count" : 796,
            "type" : "VEC3"
        },
        {
            "bufferView" : 29,
            "componentType" : 5126,
            "count" : 796,
            "type" : "VEC2"
        },
        {
            "bufferView" : 30,
            "componentType" : 5123,
            "count" : 1428,
            "type" : "SCALAR"
        }
    ],
    "bufferViews" : [
        {
            "buffer" : 0,
            "byteLength" : 8220,
            "byteOffset" : 0
        },
        {
            "buffer" : 0,
            "byteLength" : 8220,
            "byteOffset" : 8220
        },
        {
            "buffer" : 0,
            "byteLength" : 5480,
            "byteOffset" : 16440
        },
        {
            "buffer" : 0,
            "byteLength" : 3822,
            "byteOffset" : 21920
        },
        {
            "buffer" : 0,
            "byteLength" : 8964,
            "byteOffset" : 25744
        },
        {
            "buffer" : 0,
            "byteLength" : 8964,
            "byteOffset" : 34708
        },
        {
            "buffer" : 0,
            "byteLength" : 5976,
            "byteOffset" : 43672
        },
        {
            "buffer" : 0,
            "byteLength" : 3858,
            "byteOffset" : 49648
        },
        {
            "buffer" : 0,
            "byteLength" : 288,
            "byteOffset" : 53508
        },
        {
            "buffer" : 0,
            "byteLength" : 288,
            "byteOffset" : 53796
        },
        {
            "buffer" : 0,
            "byteLength" : 192,
            "byteOffset" : 54084
        },
        {
            "buffer" : 0,
            "byteLength" : 72,
            "byteOffset" : 54276
        },
        {
            "buffer" : 0,
            "byteLength" : 288,
            "byteOffset" : 54348
        },
        {
            "buffer" : 0,
            "byteLength" : 288,
            "byteOffset" : 54636
        },
        {
            "buffer" : 0,
            "byteLength" : 192,
            "byteOffset" : 54924
        },
        {
            "buffer" : 0,
            "byteLength" : 288,
            "byteOffset" : 55116
        },
        {
            "buffer" : 0,
            "byteLength" : 288,
            "byteOffset" : 55404
        },
        {
            "buffer" : 0,
            "byteLength" : 192,
            "byteOffset" : 55692
        },
        {
            "buffer" : 0,
            "byteLength" : 288,
            "byteOffset" : 55884
        },
        {
            "buffer" : 0,
            "byteLength" : 288,
            "byteOffset" : 56172
        },
        {
            "buffer" : 0,
            "byteLength" : 192,
            "byteOffset" : 56460
        },
        {
            "buffer" : 0,
            "byteLength" : 288,
            "byteOffset" : 56652
        },
        {
            "buffer" : 0,
            "byteLength" : 288,
            "byteOffset" : 56940
        },
        {
            "buffer" : 0,
            "byteLength" : 192,
            "byteOffset" : 57228
        },
        {
            "buffer" : 0,
            "byteLength" : 288,
            "byteOffset" : 57420
        },
        {
            "buffer" : 0,
            "byteLength" : 288,
            "byteOffset" : 57708
        },
        {
            "buffer" : 0,
            "byteLength" : 192,
            "byteOffset" : 57996
        },
        {
            "buffer" : 0,
            "byteLength" : 9552,
            "byteOffset" : 58188
        },
        {
            "buffer" : 0,
            "byteLength" : 9552,
            "byteOffset" : 67740
        },
        {
            "buffer" : 0,
            "byteLength" : 6368,
            "byteOffset" : 77292
        },
        {
            "buffer" : 0,
            "byteLength" : 2856,
            "byteOffset" : 83660
        }
    ],
    "buffers" : [
        {
            "byteLength" : 86516,
            "uri" : "data:application/octet-stream;base64,"
        }
    ]
}
